<?xml version="1.0" encoding="utf-8"?>
<svg version="1.1" xmlns:xlink="http://www.w3.org/1999/xlink" width="30px" height="30px" xmlns="http://www.w3.org/2000/svg">
  <g transform="matrix(1 0 0 1 -7713 -6669 )">
    <path d="M 28.96484375 18.5481770833333  C 29.3771701388887 18.1358506944443  29.5833333333335 17.6475694444443  29.5833333333335 17.0833333333333  L 29.5833333333335 12.9166666666667  C 29.5833333333335 12.3524305555557  29.3771701388887 11.8641493055557  28.96484375 11.4518229166667  C 28.5525173611113 11.0394965277778  28.0642361111113 10.8333333333333  27.5 10.8333333333333  L 19.1666666666665 10.8333333333333  L 19.1666666666665 2.5  C 19.1666666666665 1.93576388888891  18.9605034722222 1.44748263888891  18.5481770833335 1.03515625  C 18.1358506944443 0.622829861111086  17.6475694444443 0.416666666666742  17.0833333333335 0.416666666666742  L 12.9166666666665 0.416666666666742  C 12.3524305555557 0.416666666666742  11.8641493055557 0.622829861111086  11.4518229166665 1.03515625  C 11.0394965277778 1.44748263888891  10.8333333333335 1.93576388888891  10.8333333333335 2.5  L 10.8333333333335 10.8333333333333  L 2.5 10.8333333333333  C 1.93576388888869 10.8333333333333  1.44748263888869 11.0394965277778  1.03515625 11.4518229166667  C 0.622829861111313 11.8641493055557  0.416666666666515 12.3524305555557  0.416666666666515 12.9166666666667  L 0.416666666666515 17.0833333333333  C 0.416666666666515 17.6475694444443  0.622829861111313 18.1358506944443  1.03515625 18.5481770833333  C 1.44748263888869 18.9605034722222  1.93576388888869 19.1666666666667  2.5 19.1666666666667  L 10.8333333333335 19.1666666666667  L 10.8333333333335 27.5  C 10.8333333333335 28.0642361111111  11.0394965277778 28.5525173611111  11.4518229166665 28.96484375  C 11.8641493055557 29.3771701388889  12.3524305555557 29.5833333333333  12.9166666666665 29.5833333333333  L 17.0833333333335 29.5833333333333  C 17.6475694444443 29.5833333333333  18.1358506944443 29.3771701388889  18.5481770833335 28.96484375  C 18.9605034722222 28.5525173611111  19.1666666666665 28.0642361111111  19.1666666666665 27.5  L 19.1666666666665 19.1666666666667  L 27.5 19.1666666666667  C 28.0642361111113 19.1666666666667  28.5525173611113 18.9605034722222  28.96484375 18.5481770833333  Z " fill-rule="nonzero" fill="#6b7694" stroke="none" transform="matrix(1 0 0 1 7713 6669 )" />
  </g>
</svg>