<?xml version="1.0" encoding="utf-8"?>
<svg version="1.1" xmlns:xlink="http://www.w3.org/1999/xlink" width="36px" height="28px" xmlns="http://www.w3.org/2000/svg">
  <g transform="matrix(1 0 0 1 -7718 -6452 )">
    <path d="M 31.1896551724138 10.1045454545456  C 31.9137931034483 9.37909090909125  32.2758620689655 8.49818181818227  32.2758620689655 7.46181818181867  C 32.2758620689655 6.42545454545507  31.9137931034483 5.5445454545461  31.1896551724138 4.81909090909176  C 30.4655172413793 4.0936363636356  29.5862068965517 3.73090909090934  28.551724137931 3.73090909090934  L 27.3103448275862 3.73090909090934  L 27.3103448275862 11.192727272728  L 28.551724137931 11.192727272728  C 29.5862068965517 11.192727272728  30.4655172413793 10.8299999999999  31.1896551724138 10.1045454545456  Z M 1.45474137931035 25.9026136363645  C 0.484913793103487 24.9310227272726  0 23.7586363636365  0 22  L 34.7586206896551 22  C 34.7586206896551 23.7586363636365  34.2737068965517 24.9310227272726  33.3038793103449 25.9026136363645  C 32.3340517241379 26.8742045454546  31.1637931034483 27.3600000000006  29.7931034482758 27  L 4.9655172413793 27  C 3.59482758620686 27.3600000000006  2.42456896551721 26.8742045454546  1.45474137931035 25.9026136363645  Z M 33.8178879310345 2.18607954545405  C 35.2726293103449 3.64346590909008  36 5.40204545454617  36 7.46181818181867  C 36 9.52159090909117  35.2726293103449 11.2801704545454  33.8178879310345 12.7375568181815  C 32.3631465517242 14.1949431818193  30.6077586206897 14.9236363636373  28.551724137931 14.9236363636373  L 27.3103448275862 14.9236363636373  L 27.3103448275862 15.545454545454  C 27.3103448275862 16.7372727272723  26.8836206896551 17.760681818183  26.0301724137931 18.6156818181826  C 25.176724137931 19.4706818181821  24.1551724137931 19.8981818181819  22.9655172413793 19.8981818181819  L 9.31034482758616 19.8981818181819  C 8.12068965517244 19.8981818181819  7.09913793103453 19.4706818181821  6.24568965517244 18.6156818181826  C 5.39224137931035 17.760681818183  4.9655172413793 16.7372727272723  5 15.545454545454  L 5 1.24363636363705  C 4.9655172413793 0.90681818181838  5.08836206896547 0.615340909091174  5.33405172413791 0.369204545455432  C 5.57974137931035 0.123068181817871  5.87068965517244 0  6.20689655172419 0  L 28.551724137931 0  C 30.6077586206897 0  32.3631465517242 0.728693181818016  33.8178879310345 2.18607954545405  Z " fill-rule="nonzero" fill="#34354b" stroke="none" transform="matrix(1 0 0 1 7718 6452 )" />
  </g>
</svg>