<?xml version="1.0" encoding="utf-8"?>
<svg version="1.1" xmlns:xlink="http://www.w3.org/1999/xlink" width="36px" height="31px" xmlns="http://www.w3.org/2000/svg">
  <g transform="matrix(1 0 0 1 -8090 -6451 )">
    <path d="M 12.8571428571429 3  L 12.8571428571429 5.15999999999985  L 23.1428571428571 5.15999999999985  L 23.1428571428571 3  L 12.8571428571429 3  Z M 22.5 18  L 36 18  L 36 27.7349999999988  C 36 28.6218749999989  35.6852678571429 29.3810937499984  35.0558035714286 30.0126562499991  C 34.4263392857143 30.6442187499997  33.6696428571429 30.9599999999991  32.7857142857143 31  L 3.21428571428567 31  C 2.33035714285711 30.9599999999991  1.57366071428567 30.6442187499997  0.944196428571445 30.0126562499991  C 0.31473214285711 29.3810937499984  0 28.6218749999989  0 27.7349999999988  L 0 18  L 13.5 18  L 13.5 21.2849999999999  C 13.5 21.6343749999996  13.6272321428571 21.9367187499993  13.8816964285714 22.1920312499988  C 14.1361607142857 22.4473437500001  14.4375 22.5749999999989  14.7857142857143 22.5749999999989  L 21.2142857142857 22.5749999999989  C 21.5625 22.5749999999989  21.8638392857143 22.4473437500001  22.1183035714286 22.1920312499988  C 22.3727678571429 21.9367187499993  22.5 21.6343749999996  22.5 21.2849999999999  L 22.5 18  Z M 15.4285714285714 18.0599999999995  L 20.5714285714286 18.0599999999995  L 20.5714285714286 20.6399999999994  L 15.4285714285714 20.6399999999994  L 15.4285714285714 18.0599999999995  Z M 35.0558035714286 6.10734374999993  C 35.6852678571429 6.73890625000058  36 7.49812500000007  36 8.38500000000022  L 36 16  L 0 16  L 0 8.38500000000022  C 0 7.49812500000007  0.31473214285711 6.73890625000058  0.944196428571445 6.10734374999993  C 1.57366071428567 5.47578124999927  2.33035714285711 5.15999999999985  3.21428571428567 5.15999999999985  L 10.2857142857143 5.15999999999985  L 10.2857142857143 1.93499999999949  C 10.2857142857143 1.39749999999913  10.4732142857143 0.940624999999272  10.8482142857143 0.564374999999927  C 11.2232142857143 0.188125000000582  11.6785714285714 0  12.2142857142857 0  L 23.7857142857143 0  C 24.3214285714286 0  24.7767857142857 0.188125000000582  25.1517857142857 0.564374999999927  C 25.5267857142857 0.940624999999272  25.7142857142857 1.39749999999913  25.7142857142857 1.93499999999949  L 25.7142857142857 5.15999999999985  L 32.7857142857143 5.15999999999985  C 33.6696428571429 5.15999999999985  34.4263392857143 5.47578124999927  35.0558035714286 6.10734374999993  Z " fill-rule="nonzero" fill="#34354b" stroke="none" transform="matrix(1 0 0 1 8090 6451 )" />
  </g>
</svg>