<?xml version="1.0" encoding="utf-8"?>
<svg version="1.1" xmlns:xlink="http://www.w3.org/1999/xlink" width="26px" height="28px" xmlns="http://www.w3.org/2000/svg">
  <g transform="matrix(1 0 0 1 -7494 -6586 )">
    <path d="M 25.4336890243903 21.5070503048782  C 25.4751863143629 22.1100736788621  25.4959349593501 22.7280233739839  25.4959349593501 23.3608993902435  C 25.4959349593501 24.7938262195121  25.0631775067759 25.9252413617887  24.1976626016258 26.7551448170734  C 23.3321476964775 27.5850482723581  22.1820799458001 28  20.7474593495936 28  L 5.20376016260161 28  C 3.7691395663951 28  2.61907181571769 27.5850482723581  1.75355691056939 26.7551448170734  C 0.888042005419266 25.9252413617887  0.455284552845114 24.7938262195121  0.455284552845114 23.3608993902435  C 0.455284552845114 22.7280233739839  0.476033197832294 22.1100736788621  0.517530487804834 21.5070503048782  C 0.559027777777374 20.9040269308944  0.642022357724272 20.2532393292686  0.766514227641892 19.5546875  C 0.891006097561331 18.8561356707314  1.04810298102893 18.208333333333  1.23780487804834 17.6112804878048  C 1.42750677506774 17.0142276422766  1.68241869918711 16.4321011178863  2.00254065040644 15.8649009146338  C 2.32266260162578 15.2977007113823  2.69021002709997 14.814087906504  3.105182926829 14.4140625  C 3.52015582655804 14.014037093496  4.02701558265653 13.6946138211379  4.62576219512266 13.4557926829266  C 5.22450880758879 13.2169715447153  5.88550135501282 13.0975609756097  6.60873983739839 13.0975609756097  C 6.72730352303552 13.0975609756097  6.98221544715489 13.2259273373984  7.3734756097565 13.4826600609758  C 7.76473577235811 13.7393927845524  8.19749322493226 14.0259781504064  8.67174796747895 14.3424161585363  C 9.14600271002746 14.658854166667  9.78031842818382 14.9454395325201  10.5746951219517 15.2021722560976  C 11.3690718157177 15.458904979675  12.1693766937678 15.5872713414637  12.9756097560967 15.5872713414637  C 13.7818428184273 15.5872713414637  14.5821476964775 15.458904979675  15.3765243902435 15.2021722560976  C 16.1709010840113 14.9454395325201  16.8052168021677 14.658854166667  17.2794715447162 14.3424161585363  C 17.7537262872629 14.0259781504064  18.1864837398371 13.7393927845524  18.5777439024387 13.4826600609758  C 18.9690040650403 13.2259273373984  19.2239159891597 13.0975609756097  19.3424796747968 13.0975609756097  C 20.0657181571823 13.0975609756097  20.7267107046064 13.2169715447153  21.3254573170725 13.4557926829266  C 21.9242039295386 13.6946138211379  22.4310636856371 14.014037093496  22.8460365853662 14.4140625  C 23.2610094850952 14.814087906504  23.6285569105694 15.2977007113823  23.9486788617887 15.8649009146338  C 24.2688008130081 16.4321011178863  24.5237127371274 17.0142276422766  24.7134146341468 17.6112804878048  C 24.9031165311662 18.208333333333  25.0602134146338 18.8561356707314  25.1847052845533 19.5546875  C 25.3091971544709 20.2532393292686  25.3921917344178 20.9040269308944  25.4336890243903 21.5070503048782  Z M 17.804115853658 2.50285823170725  C 19.1379573170725 3.84622713414592  19.8048780487807 5.46722560975559  19.8048780487807 7.36585365853625  C 19.8048780487807 9.26448170731692  19.1379573170725 10.8854801829266  17.804115853658 12.2288490853662  C 16.4702743902435 13.5722179878048  14.8607723577243 14.2439024390242  12.9756097560967 14.2439024390242  C 11.0904471544709 14.2439024390242  9.48094512195166 13.5722179878048  8.14710365853716 12.2288490853662  C 6.81326219512266 10.8854801829266  6.1463414634145 9.26448170731692  6.1463414634145 7.36585365853625  C 6.1463414634145 5.46722560975559  6.81326219512266 3.84622713414592  8.14710365853716 2.50285823170725  C 9.48094512195166 1.15948932926858  11.0904471544709 0.487804878049246  12.9756097560967 0.487804878049246  C 14.8607723577243 0.487804878049246  16.4702743902435 1.15948932926858  17.804115853658 2.50285823170725  Z " fill-rule="nonzero" fill="#34354b" stroke="none" transform="matrix(1 0 0 1 7494 6586 )" />
  </g>
</svg>