<?xml version="1.0" encoding="utf-8"?>
<svg version="1.1" xmlns:xlink="http://www.w3.org/1999/xlink" width="28px" height="28px" xmlns="http://www.w3.org/2000/svg">
  <g transform="matrix(1 0 0 1 -7495 -6814 )">
    <path d="M 27.940340909091 21.6960227272727  C 27.980113636364 21.7888257575758  28 21.9280303030303  28 22.1136363636365  C 28 22.471590909091  27.933712121212 22.9389204545455  27.801136363636 23.515625  C 27.6685606060605 24.0923295454545  27.529356060606 24.5464015151515  27.383522727273 24.877840909091  C 27.105113636364 25.5407196969697  26.2964015151515 26.2433712121212  24.957386363636 26.9857954545455  C 23.7111742424245 27.661931818182  22.4782196969695 28  21.258522727273 28  C 20.900568181818 28  20.5492424242425 27.9767992424242  20.2045454545455 27.9303977272727  C 19.8598484848485 27.8839962121212  19.478693181818 27.8011363636365  19.0610795454545 27.681818181818  C 18.643465909091 27.5625  18.331912878788 27.4663825757575  18.1264204545455 27.393465909091  C 17.920928030303 27.3205492424242  17.5530303030305 27.184659090909  17.022727272727 26.9857954545455  C 16.4924242424245 26.786931818182  16.167613636364 26.6676136363635  16.0482954545455 26.627840909091  C 14.749053030303 26.1638257575758  13.589015151515 25.6136363636365  12.568181818182 24.9772727272727  C 10.8844696969695 23.9299242424242  9.13446969696952 22.498106060606  7.31818181818198 20.681818181818  C 5.50189393939399 18.8655303030303  4.07007575757552 17.1155303030303  3.02272727272702 15.431818181818  C 2.38636363636397 14.4109848484848  1.83617424242448 13.250946969697  1.37215909090901 11.9517045454545  C 1.33238636363603 11.8323863636365  1.21306818181802 11.5075757575758  1.0142045454545 10.9772727272727  C 0.815340909090992 10.4469696969697  0.679450757575523 10.079071969697  0.606534090909008 9.8735795454545  C 0.533617424242493 9.66808712121224  0.4375 9.35653409090901  0.318181818181984 8.9389204545455  C 0.198863636363967 8.52130681818198  0.116003787878526 8.1401515151515  0.0696022727270247 7.7954545454545  C 0.0232007575755233 7.45075757575751  0 7.09943181818198  0 6.74147727272725  C 0 5.52178030303025  0.338068181818016 4.28882575757575  1.0142045454545 3.04261363636351  C 1.75662878787853 1.7035984848485  2.45928030303048 0.894886363636488  3.12215909090901 0.616477272727252  C 3.4535984848485 0.470643939393995  3.9076704545455 0.331439393939263  4.484375 0.198863636363512  C 5.0610795454545 0.0662878787877617  5.52840909090901 0  5.88636363636397 0  C 6.07196969696952 0  6.21117424242448 0.0198863636364877  6.30397727272702 0.0596590909090082  C 6.54261363636397 0.139204545454504  6.89393939393949 0.642992424242493  7.3579545454545 1.57102272727275  C 7.50378787878799 1.82291666666674  7.7026515151515 2.18087121212125  7.9545454545455 2.64488636363649  C 8.20643939393949 3.1089015151515  8.438446969697 3.5298295454545  8.65056818181802 3.9076704545455  C 8.86268939393949 4.28551136363649  9.06818181818198 4.6401515151515  9.2670454545455 4.97159090909099  C 9.30681818181802 5.02462121212125  9.422821969697 5.19034090909099  9.61505681818198 5.46875  C 9.80729166666652 5.74715909090901  9.94981060606051 5.98248106060601  10.042613636364 6.17471590909099  C 10.1354166666665 6.36695075757575  10.181818181818 6.55587121212125  10.181818181818 6.74147727272725  C 10.181818181818 7.00662878787875  9.99289772727298 7.33806818181802  9.61505681818198 7.7357954545455  C 9.23721590909099 8.13352272727275  8.82623106060601 8.49810606060601  8.38210227272702 8.8295454545455  C 7.9379734848485 9.16098484848476  7.52698863636397 9.51231060606074  7.14914772727298 9.88352272727275  C 6.77130681818198 10.2547348484848  6.58238636363603 10.559659090909  6.58238636363603 10.7982954545455  C 6.58238636363603 10.9176136363635  6.61553030303048 11.0667613636365  6.68181818181802 11.2457386363635  C 6.74810606060601 11.424715909091  6.80445075757552 11.560606060606  6.85085227272702 11.653409090909  C 6.89725378787853 11.7462121212122  6.99005681818198 11.905303030303  7.12926136363603 12.130681818182  C 7.26846590909099 12.3560606060607  7.344696969697 12.4820075757575  7.3579545454545 12.5085227272727  C 8.36553030303048 14.3248106060607  9.51893939393949 15.8825757575758  10.818181818182 17.181818181818  C 12.1174242424245 18.4810606060607  13.6751893939395 19.6344696969697  15.491477272727 20.6420454545455  C 15.5179924242425 20.655303030303  15.6439393939395 20.731534090909  15.869318181818 20.8707386363635  C 16.094696969697 21.009943181818  16.253787878788 21.1027462121212  16.346590909091 21.1491477272727  C 16.439393939394 21.1955492424242  16.575284090909 21.251893939394  16.754261363636 21.318181818182  C 16.933238636364 21.3844696969697  17.082386363636 21.4176136363635  17.2017045454545 21.4176136363635  C 17.440340909091 21.4176136363635  17.745265151515 21.228693181818  18.116477272727 20.8508522727273  C 18.4876893939395 20.4730113636365  18.839015151515 20.0620265151515  19.1704545454545 19.6178977272727  C 19.501893939394 19.173768939394  19.866477272727 18.762784090909  20.2642045454545 18.384943181818  C 20.661931818182 18.0071022727273  20.9933712121215 17.818181818182  21.258522727273 17.818181818182  C 21.4441287878785 17.818181818182  21.6330492424245 17.8645833333333  21.825284090909 17.9573863636365  C 22.017518939394 18.0501893939393  22.252840909091 18.1927083333333  22.53125 18.384943181818  C 22.809659090909 18.577178030303  22.9753787878785 18.693181818182  23.028409090909 18.7329545454545  C 23.3598484848485 18.931818181818  23.714488636364 19.1373106060607  24.0923295454545 19.349431818182  C 24.4701704545455 19.561553030303  24.8910984848485 19.7935606060607  25.355113636364 20.0454545454545  C 25.8191287878785 20.2973484848485  26.1770833333335 20.4962121212122  26.428977272727 20.6420454545455  C 27.3570075757575 21.1060606060607  27.8607954545455 21.4573863636365  27.940340909091 21.6960227272727  Z " fill-rule="nonzero" fill="#34354b" stroke="none" transform="matrix(1 0 0 1 7495 6814 )" />
  </g>
</svg>