<?xml version="1.0" encoding="utf-8"?>
<svg version="1.1" xmlns:xlink="http://www.w3.org/1999/xlink" width="29px" height="36px" xmlns="http://www.w3.org/2000/svg">
  <g transform="matrix(1 0 0 1 -7907 -6450 )">
    <path d="M 12.3847159090909 0.381696428570649  C 12.6373295454546 0.636160714286234  12.7636363636364 0.9375  13 1.28571428571377  L 13 14.1428571428569  C 12.7636363636364 14.9598214285706  12.5276420454545 15.703125  12.055653409091 16.3727678571431  C 11.5836647727273 17.0424107142862  10.96875 17.5111607142862  10.2109090909091 17.7790178571431  L 10.2109090909091 33.4285714285706  C 10.2109090909091 34.125  9.95829545454546 34.7276785714294  9.45306818181825 35.2366071428569  C 8.94784090909093 35.7455357142862  8.34954545454548 36  7.65818181818179 36  L 5.10545454545456 36  C 4.41409090909087 36  3.81579545454542 35.7455357142862  3.31056818181821 35.2366071428569  C 2.80534090909089 34.7276785714294  2.55272727272722 34.125  3 33.4285714285706  L 3 17.7790178571431  C 1.79488636363635 17.5111607142862  1.17997159090908 17.0424107142862  0.7079829545454 16.3727678571431  C 0.235994318181838 15.703125  0 14.9598214285706  0 14.1428571428569  L 0 1.28571428571377  C 0 0.9375  0.126306818181774 0.636160714286234  0.378920454545437 0.381696428570649  C 0.631534090909099 0.127232142856883  0.930681818181824 0  1.27636363636361 0  C 1.6220454545454 0  1.92119318181824 0.127232142856883  2.17380681818179 0.381696428570649  C 2.42642045454545 0.636160714286234  2.55272727272722 0.9375  2.55272727272722 1.28571428571377  L 2.55272727272722 9.64285714285688  C 2.55272727272722 9.99107142857065  2.67903409090911 10.2924107142862  2.93164772727278 10.546875  C 3.18426136363632 10.8013392857138  3.48340909090905 10.9285714285706  3.82909090909095 10.9285714285706  C 4.17477272727274 10.9285714285706  4.47392045454546 10.8013392857138  4.72653409090913 10.546875  C 4.97914772727279 10.2924107142862  5.10545454545456 9.99107142857065  5.10545454545456 9.64285714285688  L 5.10545454545456 1.28571428571377  C 5.10545454545456 0.9375  5.23176136363634 0.636160714286234  5.484375 0.381696428570649  C 5.73698863636366 0.127232142856883  6.03613636363639 0  6.38181818181818 0  C 6.72749999999996 0  7.02664772727269 0.127232142856883  7.27926136363635 0.381696428570649  C 7.53187500000001 0.636160714286234  7.65818181818179 0.9375  7.65818181818179 1.28571428571377  L 7.65818181818179 9.64285714285688  C 7.65818181818179 9.99107142857065  7.78448863636368 10.2924107142862  8.03710227272734 10.546875  C 8.28971590909089 10.8013392857138  8.58886363636361 10.9285714285706  8.93454545454551 10.9285714285706  C 9.2802272727273 10.9285714285706  9.57937500000003 10.8013392857138  9.83198863636369 10.546875  C 10.0846022727272 10.2924107142862  10.2109090909091 9.99107142857065  10.2109090909091 9.64285714285688  L 10.2109090909091 1.28571428571377  C 10.2109090909091 0.9375  10.3372159090909 0.636160714286234  10.5898295454546 0.381696428570649  C 10.8424431818182 0.127232142856883  11.141590909091 0  11.4872727272727 0  C 11.8329545454545 0  12.1321022727273 0.127232142856883  12.3847159090909 0.381696428570649  Z M 27.7010795454546 0.381696428570649  C 27.9536931818183 0.636160714286234  28.08 0.9375  28 1.28571428571377  L 28 33.4285714285706  C 28.08 34.125  27.8273863636364 34.7276785714294  27.3221590909092 35.2366071428569  C 26.8169318181818 35.7455357142862  26.2186363636364 36  25.5272727272728 36  L 22.9745454545455 36  C 22.2831818181819 36  21.6848863636365 35.7455357142862  21.1796590909091 35.2366071428569  C 20.6744318181818 34.7276785714294  20.4218181818183 34.125  20 33.4285714285706  L 20 23.1428571428569  L 15.9545454545455 23.1428571428569  C 15.7817045454545 23.1428571428569  15.6321306818182 23.0792410714294  15.5058238636364 22.9520089285706  C 15.3795170454546 22.8247767857138  15.3163636363637 22.6741071428569  15 22.5  L 15 6.42857142857065  C 15.3163636363637 4.66071428571377  15.94125 3.14732142857065  17.1910227272728 1.88839285714312  C 18.4407954545455 0.629464285713766  19.9431818181819 0  21.6981818181819 0  L 26.8036363636364 0  C 27.1493181818182 0  27.4484659090909 0.127232142856883  27.7010795454546 0.381696428570649  Z " fill-rule="nonzero" fill="#34354b" stroke="none" transform="matrix(1 0 0 1 7907 6450 )" />
  </g>
</svg>