<?xml version="1.0" encoding="utf-8"?>
<svg version="1.1" xmlns:xlink="http://www.w3.org/1999/xlink" width="36px" height="26px" xmlns="http://www.w3.org/2000/svg">
  <g transform="matrix(1 0 0 1 -7545 -6452 )">
    <path d="M 19.7046843177189 24.554322580645  C 18.8126272912424 25.4647741935478  18.2443991853361 25.9200000000001  18 25.9200000000001  C 17.7556008146639 25.9200000000001  17.1873727087576 25.4647741935478  16.2953156822811 24.554322580645  C 15.4032586558045 23.6438709677423  14.9572301425662 23.0647741935481  14.9572301425662 22.8170322580645  C 14.9572301425662 22.4206451612899  15.3391038696537 22.0861935483863  16.1028513238289 21.8136774193554  C 16.8665987780041 21.5411612903226  17.4989816700611 21.4049032258063  18 21.4049032258063  C 18.5010183299389 21.4049032258063  19.1334012219959 21.5411612903226  19.8971486761711 21.8136774193554  C 20.6608961303463 22.0861935483863  21.0427698574338 22.4206451612899  21.0427698574338 22.8170322580645  C 21.0427698574338 23.0647741935481  20.5967413441955 23.6438709677423  19.7046843177189 24.554322580645  Z M 24.662932790224 19.4910967741944  C 23.7403258655804 20.420129032258  23.1690427698575 20.8846451612899  22.949083503055 20.8846451612899  C 22.9246435845214 20.8846451612899  22.6802443991853 20.7298064516126  22.2158859470469 20.420129032258  C 21.7515274949084 20.1104516129035  21.1313645621182 19.8007741935489  20.3553971486762 19.4910967741944  C 19.5794297352343 19.181419354838  18.7942973523421 19.0265806451607  18 19.0265806451607  C 17.2057026476579 19.0265806451607  16.4205702647657 19.181419354838  15.6446028513238 19.4910967741944  C 14.8686354378818 19.8007741935489  14.2515274949084 20.1104516129035  13.7932790224032 20.420129032258  C 13.3350305498982 20.7298064516126  13.0875763747454 20.8846451612899  13.050916496945 20.8846451612899  C 12.8309572301425 20.8846451612899  12.2596741344196 20.420129032258  11.337067209776 19.4910967741944  C 10.4144602851323 18.5620645161289  9.95315682281057 17.9860645161298  9.95315682281057 17.7630967741934  C 9.95315682281057 17.6020645161298  10.0142566191446 17.4596129032252  10.1364562118126 17.3357419354834  C 11.0896130346232 16.3819354838706  12.2871690427698 15.6325161290315  13.7291242362526 15.0874838709678  C 15.1710794297352 14.5424516129024  16.5947046843178 14.2699354838715  18 14.2699354838715  C 19.4052953156823 14.2699354838715  20.8289205702648 14.5424516129024  22.2708757637474 15.0874838709678  C 23.7128309572302 15.6325161290315  24.9103869653768 16.3819354838706  25.8635437881874 17.3357419354834  C 25.9857433808554 17.4596129032252  26.0468431771894 17.6020645161298  26.0468431771894 17.7630967741934  C 26.0468431771894 17.9860645161298  25.5855397148677 18.5620645161289  24.662932790224 19.4910967741944  Z M 29.6395112016294 14.4371612903233  C 28.7230142566192 15.3661935483869  28.1608961303463 15.8307096774188  27.9531568228106 15.8307096774188  C 27.8187372708758 15.8307096774188  27.6782077393075 15.7811612903224  27.5315682281059 15.6820645161297  C 25.8696537678208 14.3814193548387  24.3299389002036 13.4245161290328  22.9124236252546 12.81135483871  C 21.4949083503055 12.1981935483873  19.857433808554 11.8916129032259  18 11.8916129032259  C 16.9613034623218 11.8916129032259  15.9195519348269 12.0278709677423  14.8747454175153 12.300387096775  C 13.8299389002036 12.5729032258059  12.9195519348269 12.9011612903232  12.1435845213849 13.2851612903232  C 11.3676171079429 13.6691612903232  10.6741344195519 14.0531612903233  10.0631364562119 14.4371612903233  C 9.45213849287165 14.8211612903233  8.96945010183299 15.1494193548388  8.61507128309574 15.4219354838715  C 8.2606924643585 15.6944516129024  8.07128309572306 15.8307096774188  8.04684317718943 15.8307096774188  C 7.83910386965374 15.8307096774188  7.27698574338081 15.3661935483869  6.36048879837062 14.4371612903233  C 5.44399185336044 13.5081290322578  4.98574338085541 12.9321290322587  4.98574338085541 12.7091612903223  C 4.98574338085541 12.5605161290314  5.04684317718943 12.4242580645168  5.16904276985747 12.300387096775  C 6.78207739307538 10.6652903225804  8.73727087576378 9.39561290322672  11.0346232179226 8.49135483871032  C 13.3319755600814 7.58709677419392  15.653767820774 7.13496774193481  18 7.13496774193481  C 20.346232179226 7.13496774193481  22.6680244399186 7.58709677419392  24.9653767820774 8.49135483871032  C 27.2627291242362 9.39561290322672  29.2179226069246 10.6652903225804  30.8309572301425 12.300387096775  C 30.9531568228106 12.4242580645168  31.0142566191446 12.5605161290314  31.0142566191446 12.7091612903223  C 31.0142566191446 12.9321290322587  30.5560081466396 13.5081290322578  29.6395112016294 14.4371612903233  Z M 34.6160896130347 9.40180645161308  C 33.693482688391 10.3308387096768  33.1283095723014 10.7953548387104  32.9205702647657 10.7953548387104  C 32.7861507128309 10.7953548387104  32.6517311608961 10.7396129032259  32.5173116089613 10.6281290322586  C 30.3299389002036 8.68335483870942  28.0600814663951 7.21858064516164  25.7077393075357 6.23380645161342  C 23.3553971486762 5.2490322580652  20.7861507128309 4.75664516129109  18 4.75664516129109  C 15.2138492871691 4.75664516129109  12.6446028513238 5.2490322580652  10.2922606924643 6.23380645161342  C 7.9399185336049 7.21858064516164  5.67006109979639 8.68335483870942  3.48268839103866 10.6281290322586  C 3.34826883910387 10.7396129032259  3.21384928716907 10.7953548387104  3.07942973523427 10.7953548387104  C 2.87169042769858 10.7953548387104  2.30651731160901 10.3308387096768  1.38391038696534 9.40180645161308  C 0.46130346232178 8.47277419354759  0 7.89677419354848  0 7.67380645161211  C 0 7.51277419354847  0.0610997963340196 7.37032258064573  0.183299389002059 7.24645161290391  C 2.46843177189407 4.94245161290382  5.18737270875761 3.15870967742012  8.34012219959266 1.89522580645098  C 11.4928716904277 0.63174193548366  14.7128309572302 0  18 0  C 21.2871690427698 0  24.5071283095723 0.63174193548366  27.6598778004073 1.89522580645098  C 30.8126272912424 3.15870967742012  33.5315682281059 4.94245161290382  35.8167006109979 7.24645161290391  C 35.938900203666 7.37032258064573  36 7.51277419354847  36 7.67380645161211  C 36 7.89677419354848  35.5386965376782 8.47277419354759  34.6160896130347 9.40180645161308  Z " fill-rule="nonzero" fill="#34354b" stroke="none" transform="matrix(1 0 0 1 7545 6452 )" />
  </g>
</svg>